<?xml version="1.0" encoding="UTF-8"?>
<svg xmlns="http://www.w3.org/2000/svg" width="1600" height="900" viewBox="0 0 1600 900">
  <rect width="1600" height="900" fill="#020b1d"/>
<defs>
  <linearGradient id="sky" x1="0" y1="0" x2="1" y2="1">
    <stop offset="0%" stop-color="#010817"/>
    <stop offset="55%" stop-color="#03132b"/>
    <stop offset="100%" stop-color="#071b36"/>
  </linearGradient>
  <linearGradient id="mw" x1="0" y1="1" x2="1" y2="0">
    <stop offset="0%" stop-color="#5b607b" stop-opacity="0"/>
    <stop offset="38%" stop-color="#8a86a8" stop-opacity=".10"/>
    <stop offset="58%" stop-color="#d1b7a0" stop-opacity=".18"/>
    <stop offset="72%" stop-color="#9aa9cf" stop-opacity=".13"/>
    <stop offset="100%" stop-color="#4e6088" stop-opacity="0"/>
  </linearGradient>
  <filter id="blur30"><feGaussianBlur stdDeviation="30"/></filter>
  <filter id="blur12"><feGaussianBlur stdDeviation="12"/></filter>
  <filter id="glow"><feGaussianBlur stdDeviation="3"/></filter>
</defs>
<rect width="1600" height="900" fill="url(#sky)"/>

<path d="M470 940 C650 780 760 690 920 590 C1080 490 1240 390 1650 150
         L1700 430 C1400 580 1190 680 1010 760 C820 845 700 920 650 980 Z"
      fill="url(#mw)" filter="url(#blur30)"/>
<path d="M610 930 C780 780 930 700 1080 600 C1240 495 1390 390 1650 270"
      fill="none" stroke="#b6b8d0" stroke-opacity=".10" stroke-width="90" filter="url(#blur30)"/>
<path d="M730 900 C880 770 1020 700 1170 590 C1320 480 1450 390 1600 330"
      fill="none" stroke="#e0c9b2" stroke-opacity=".09" stroke-width="38" filter="url(#blur12)"/>

<path d="M700 900 C850 785 980 735 1110 635 C1250 530 1380 475 1590 350"
      fill="none" stroke="#010712" stroke-opacity=".28" stroke-width="5"/>
<circle cx="834.3" cy="716.8" r="0.65" fill="#bcd6ff" opacity="0.58"/><circle cx="191.9" cy="38.4" r="0.80" fill="#fff7df" opacity="0.82"/><circle cx="413.7" cy="451.4" r="0.65" fill="#fff7df" opacity="0.74"/><circle cx="234.6" cy="494.5" r="0.55" fill="#dceaff" opacity="0.82"/><circle cx="255.4" cy="628.8" r="1.00" fill="#dceaff" opacity="0.81"/><circle cx="536.4" cy="122.4" r="1.20" fill="#bcd6ff" opacity="0.74"/><circle cx="659.1" cy="456.3" r="0.80" fill="#dceaff" opacity="0.74"/><circle cx="1084.9" cy="370.5" r="1.00" fill="#ffffff" opacity="0.86"/><circle cx="695.1" cy="512.4" r="1.20" fill="#fff7df" opacity="0.61"/><circle cx="604.7" cy="688.7" r="0.80" fill="#dceaff" opacity="0.56"/><circle cx="1513.5" cy="473.4" r="0.65" fill="#ffffff" opacity="0.48"/><circle cx="1246.9" cy="182.7" r="1.00" fill="#dceaff" opacity="0.82"/><circle cx="410.3" cy="282.6" r="0.65" fill="#bcd6ff" opacity="0.59"/><circle cx="166.8" cy="515.2" r="0.65" fill="#ffffff" opacity="0.60"/><circle cx="1195.1" cy="317.8" r="0.80" fill="#fff7df" opacity="0.79"/><circle cx="1007.6" cy="649.2" r="0.65" fill="#fff7df" opacity="0.57"/><circle cx="52.2" cy="505.8" r="1.20" fill="#fff7df" opacity="0.51"/><circle cx="1161.4" cy="850.0" r="1.00" fill="#dceaff" opacity="0.82"/><circle cx="325.2" cy="233.7" r="0.55" fill="#dceaff" opacity="0.75"/><circle cx="98.4" cy="861.7" r="0.65" fill="#bcd6ff" opacity="0.81"/><circle cx="1284.8" cy="58.0" r="0.80" fill="#bcd6ff" opacity="0.49"/><circle cx="1328.8" cy="587.0" r="0.80" fill="#ffffff" opacity="0.67"/><circle cx="867.1" cy="867.0" r="0.55" fill="#bcd6ff" opacity="0.69"/><circle cx="918.5" cy="712.2" r="0.45" fill="#fff7df" opacity="0.78"/><circle cx="934.8" cy="732.3" r="0.55" fill="#fff7df" opacity="0.70"/><circle cx="140.7" cy="414.6" r="0.55" fill="#bcd6ff" opacity="0.55"/><circle cx="1298.6" cy="858.7" r="1.00" fill="#fff7df" opacity="0.46"/><circle cx="103.8" cy="739.1" r="1.00" fill="#dceaff" opacity="0.53"/><circle cx="976.2" cy="335.1" r="0.55" fill="#bcd6ff" opacity="0.59"/><circle cx="720.5" cy="96.3" r="0.45" fill="#dceaff" opacity="0.69"/><circle cx="1489.8" cy="796.8" r="1.00" fill="#fff7df" opacity="0.79"/><circle cx="743.3" cy="759.4" r="0.55" fill="#fff7df" opacity="0.69"/><circle cx="726.4" cy="271.0" r="0.55" fill="#fff7df" opacity="0.89"/><circle cx="546.3" cy="301.0" r="0.45" fill="#ffffff" opacity="0.57"/><circle cx="63.0" cy="425.4" r="0.65" fill="#ffffff" opacity="0.73"/><circle cx="1233.7" cy="728.4" r="0.45" fill="#dceaff" opacity="0.65"/><circle cx="1373.0" cy="41.0" r="0.80" fill="#fff7df" opacity="0.81"/><circle cx="1511.4" cy="657.4" r="0.45" fill="#bcd6ff" opacity="0.53"/><circle cx="440.3" cy="317.2" r="1.00" fill="#fff7df" opacity="0.71"/><circle cx="652.6" cy="21.5" r="0.65" fill="#ffffff" opacity="0.49"/><circle cx="997.2" cy="767.7" r="0.65" fill="#bcd6ff" opacity="0.59"/><circle cx="218.5" cy="743.2" r="0.80" fill="#fff7df" opacity="0.82"/><circle cx="214.4" cy="232.5" r="1.20" fill="#dceaff" opacity="0.64"/><circle cx="773.2" cy="126.5" r="1.00" fill="#dceaff" opacity="0.89"/><circle cx="1244.1" cy="87.4" r="0.80" fill="#fff7df" opacity="0.69"/><circle cx="1238.4" cy="540.8" r="0.55" fill="#dceaff" opacity="0.75"/><circle cx="276.6" cy="480.3" r="0.65" fill="#bcd6ff" opacity="0.67"/><circle cx="1512.4" cy="369.2" r="1.00" fill="#dceaff" opacity="0.56"/><circle cx="1233.7" cy="386.5" r="0.65" fill="#fff7df" opacity="0.69"/><circle cx="1190.5" cy="710.4" r="0.65" fill="#fff7df" opacity="0.87"/><circle cx="411.0" cy="181.2" r="0.45" fill="#bcd6ff" opacity="0.74"/><circle cx="788.6" cy="389.6" r="1.00" fill="#dceaff" opacity="0.62"/><circle cx="130.1" cy="273.1" r="0.65" fill="#fff7df" opacity="0.60"/><circle cx="521.3" cy="853.6" r="1.20" fill="#fff7df" opacity="0.57"/><circle cx="1367.0" cy="816.9" r="1.00" fill="#fff7df" opacity="0.73"/><circle cx="182.4" cy="726.6" r="1.20" fill="#bcd6ff" opacity="0.73"/><circle cx="389.9" cy="200.5" r="0.65" fill="#fff7df" opacity="0.83"/><circle cx="605.7" cy="837.1" r="0.65" fill="#dceaff" opacity="0.63"/><circle cx="1394.8" cy="25.4" r="1.00" fill="#bcd6ff" opacity="0.71"/><circle cx="1072.8" cy="443.1" r="0.80" fill="#bcd6ff" opacity="0.72"/><circle cx="721.0" cy="686.8" r="0.55" fill="#dceaff" opacity="0.79"/><circle cx="315.4" cy="757.9" r="1.20" fill="#dceaff" opacity="0.84"/><circle cx="378.8" cy="566.1" r="0.80" fill="#dceaff" opacity="0.48"/><circle cx="573.9" cy="450.5" r="0.55" fill="#fff7df" opacity="0.87"/><circle cx="1170.7" cy="723.1" r="0.45" fill="#fff7df" opacity="0.51"/><circle cx="1218.1" cy="213.1" r="0.80" fill="#bcd6ff" opacity="0.62"/><circle cx="1349.0" cy="617.7" r="0.55" fill="#fff7df" opacity="0.60"/><circle cx="1470.7" cy="761.3" r="0.80" fill="#ffffff" opacity="0.46"/><circle cx="654.2" cy="865.6" r="0.80" fill="#dceaff" opacity="0.49"/><circle cx="794.9" cy="245.2" r="0.55" fill="#bcd6ff" opacity="0.54"/><circle cx="248.8" cy="760.7" r="0.65" fill="#ffffff" opacity="0.65"/><circle cx="1422.5" cy="753.1" r="1.20" fill="#bcd6ff" opacity="0.57"/><circle cx="1029.8" cy="465.1" r="1.00" fill="#ffffff" opacity="0.47"/><circle cx="1126.4" cy="262.9" r="1.00" fill="#ffffff" opacity="0.86"/><circle cx="448.5" cy="551.0" r="0.80" fill="#ffffff" opacity="0.88"/><circle cx="87.9" cy="338.8" r="0.80" fill="#fff7df" opacity="0.60"/><circle cx="592.4" cy="206.2" r="1.00" fill="#ffffff" opacity="0.81"/><circle cx="563.4" cy="700.3" r="0.80" fill="#ffffff" opacity="0.50"/><circle cx="83.8" cy="355.8" r="0.45" fill="#fff7df" opacity="0.75"/><circle cx="244.0" cy="186.3" r="0.80" fill="#bcd6ff" opacity="0.47"/><circle cx="48.4" cy="531.0" r="0.45" fill="#dceaff" opacity="0.51"/><circle cx="502.0" cy="575.3" r="0.65" fill="#ffffff" opacity="0.72"/><circle cx="702.4" cy="348.9" r="1.20" fill="#bcd6ff" opacity="0.66"/><circle cx="857.5" cy="296.3" r="0.80" fill="#ffffff" opacity="0.87"/><circle cx="1378.1" cy="96.0" r="1.20" fill="#ffffff" opacity="0.66"/><circle cx="1150.9" cy="528.4" r="1.20" fill="#ffffff" opacity="0.52"/><circle cx="1076.5" cy="606.7" r="0.55" fill="#dceaff" opacity="0.83"/><circle cx="1383.9" cy="666.2" r="0.45" fill="#fff7df" opacity="0.50"/><circle cx="1269.2" cy="440.7" r="0.80" fill="#bcd6ff" opacity="0.64"/><circle cx="920.0" cy="504.6" r="1.20" fill="#dceaff" opacity="0.63"/><circle cx="1223.8" cy="208.1" r="0.65" fill="#bcd6ff" opacity="0.82"/><circle cx="754.6" cy="702.7" r="0.55" fill="#dceaff" opacity="0.73"/><circle cx="1193.1" cy="422.0" r="0.80" fill="#fff7df" opacity="0.65"/><circle cx="983.5" cy="188.1" r="0.45" fill="#bcd6ff" opacity="0.56"/><circle cx="99.8" cy="242.5" r="1.20" fill="#fff7df" opacity="0.61"/><circle cx="622.7" cy="54.9" r="1.00" fill="#ffffff" opacity="0.68"/><circle cx="57.0" cy="486.0" r="0.65" fill="#bcd6ff" opacity="0.77"/><circle cx="1285.3" cy="594.5" r="0.55" fill="#bcd6ff" opacity="0.89"/><circle cx="934.0" cy="589.3" r="1.00" fill="#bcd6ff" opacity="0.56"/><circle cx="911.5" cy="818.1" r="0.45" fill="#dceaff" opacity="0.51"/><circle cx="728.3" cy="148.2" r="0.80" fill="#ffffff" opacity="0.86"/><circle cx="1407.5" cy="165.6" r="0.80" fill="#fff7df" opacity="0.75"/><circle cx="175.1" cy="181.6" r="0.55" fill="#fff7df" opacity="0.77"/><circle cx="530.3" cy="429.2" r="0.80" fill="#bcd6ff" opacity="0.76"/><circle cx="1128.8" cy="794.2" r="0.80" fill="#ffffff" opacity="0.49"/><circle cx="406.7" cy="231.9" r="0.45" fill="#bcd6ff" opacity="0.57"/><circle cx="524.2" cy="242.0" r="0.80" fill="#bcd6ff" opacity="0.45"/><circle cx="1188.5" cy="845.1" r="0.55" fill="#ffffff" opacity="0.55"/><circle cx="577.9" cy="636.9" r="0.55" fill="#bcd6ff" opacity="0.61"/><circle cx="374.7" cy="455.4" r="0.55" fill="#ffffff" opacity="0.83"/><circle cx="782.0" cy="756.5" r="1.20" fill="#fff7df" opacity="0.79"/><circle cx="661.1" cy="306.6" r="1.00" fill="#ffffff" opacity="0.66"/><circle cx="61.3" cy="70.3" r="0.55" fill="#fff7df" opacity="0.58"/><circle cx="1039.5" cy="150.4" r="0.65" fill="#bcd6ff" opacity="0.53"/><circle cx="1322.8" cy="157.3" r="1.20" fill="#bcd6ff" opacity="0.84"/><circle cx="782.5" cy="505.4" r="0.65" fill="#fff7df" opacity="0.74"/><circle cx="356.8" cy="508.2" r="0.80" fill="#bcd6ff" opacity="0.86"/><circle cx="744.6" cy="284.9" r="0.45" fill="#bcd6ff" opacity="0.77"/><circle cx="227.8" cy="854.9" r="0.45" fill="#bcd6ff" opacity="0.45"/><circle cx="1246.4" cy="88.9" r="1.00" fill="#dceaff" opacity="0.50"/><circle cx="1454.8" cy="90.9" r="0.65" fill="#fff7df" opacity="0.52"/><circle cx="515.5" cy="132.3" r="0.80" fill="#fff7df" opacity="0.82"/><circle cx="1518.3" cy="543.9" r="0.80" fill="#dceaff" opacity="0.46"/><circle cx="1283.5" cy="800.4" r="0.55" fill="#ffffff" opacity="0.80"/><circle cx="664.1" cy="231.0" r="0.65" fill="#dceaff" opacity="0.72"/><circle cx="555.1" cy="137.4" r="0.65" fill="#bcd6ff" opacity="0.88"/><circle cx="450.8" cy="855.0" r="0.80" fill="#fff7df" opacity="0.57"/><circle cx="624.8" cy="604.3" r="1.00" fill="#fff7df" opacity="0.80"/><circle cx="1565.6" cy="307.3" r="0.55" fill="#ffffff" opacity="0.74"/><circle cx="774.8" cy="121.1" r="1.20" fill="#bcd6ff" opacity="0.74"/><circle cx="816.9" cy="626.6" r="1.20" fill="#dceaff" opacity="0.55"/><circle cx="59.2" cy="76.2" r="0.80" fill="#fff7df" opacity="0.82"/><circle cx="1032.2" cy="647.9" r="1.00" fill="#bcd6ff" opacity="0.82"/><circle cx="446.0" cy="455.5" r="1.00" fill="#ffffff" opacity="0.87"/><circle cx="27.9" cy="842.1" r="0.65" fill="#dceaff" opacity="0.46"/><circle cx="882.6" cy="130.3" r="0.80" fill="#bcd6ff" opacity="0.47"/><circle cx="1280.9" cy="549.7" r="1.00" fill="#dceaff" opacity="0.62"/><circle cx="486.9" cy="709.0" r="0.65" fill="#dceaff" opacity="0.70"/><circle cx="819.3" cy="337.2" r="0.45" fill="#bcd6ff" opacity="0.57"/><circle cx="1561.6" cy="828.8" r="1.00" fill="#dceaff" opacity="0.69"/><circle cx="980.4" cy="275.6" r="1.00" fill="#dceaff" opacity="0.76"/><circle cx="732.7" cy="549.5" r="0.65" fill="#dceaff" opacity="0.50"/><circle cx="163.8" cy="191.3" r="0.55" fill="#bcd6ff" opacity="0.62"/><circle cx="788.1" cy="15.1" r="0.80" fill="#fff7df" opacity="0.89"/><circle cx="928.6" cy="625.3" r="0.55" fill="#bcd6ff" opacity="0.50"/><circle cx="220" cy="198" r="7.4" fill="#eaf3ff" opacity=".12" filter="url(#glow)"/><circle cx="220" cy="198" r="3.1" fill="#eaf3ff" opacity=".95"/><circle cx="1025" cy="118" r="4.8" fill="#dce9ff" opacity=".12" filter="url(#glow)"/><circle cx="1025" cy="118" r="2.0" fill="#dce9ff" opacity=".95"/><circle cx="1420" cy="464" r="5.5" fill="#edf5ff" opacity=".12" filter="url(#glow)"/><circle cx="1420" cy="464" r="2.3" fill="#edf5ff" opacity=".95"/><circle cx="585" cy="732" r="4.3" fill="#fff5dc" opacity=".12" filter="url(#glow)"/><circle cx="585" cy="732" r="1.8" fill="#fff5dc" opacity=".95"/><circle cx="1478" cy="792" r="3.8" fill="#d8e8ff" opacity=".12" filter="url(#glow)"/><circle cx="1478" cy="792" r="1.6" fill="#d8e8ff" opacity=".95"/><circle cx="385" cy="443" r="3.6" fill="#e5efff" opacity=".12" filter="url(#glow)"/><circle cx="385" cy="443" r="1.5" fill="#e5efff" opacity=".95"/>
</svg>
